<?xml version="1.0" encoding="utf-8"?>
<!-- Generator: Adobe Illustrator 16.0.4, SVG Export Plug-In . SVG Version: 6.00 Build 0)  -->
<!DOCTYPE svg PUBLIC "-//W3C//DTD SVG 1.1//EN" "http://www.w3.org/Graphics/SVG/1.1/DTD/svg11.dtd" [
	<!ENTITY st0 "fill:#0097A7;">
]>
<svg version="1.1" id="Layer_1" xmlns="http://www.w3.org/2000/svg" xmlns:xlink="http://www.w3.org/1999/xlink" x="0px" y="0px"
	 width="20px" height="20px" viewBox="0 0 20 20" style="enable-background:new 0 0 20 20;" xml:space="preserve">
<g>
	<path style="&st0;" d="M17,1c-0.55,0-1.45,0-2,0H5C4.45,1,3.55,1,3,1H1C0.45,1,0,1.45,0,2v6c0,0.55,0,1.45,0,2v8c0,0.55,0.45,1,1,1
		l0,0c0.55,0,1-0.45,1-1V6c0-0.55,0.45-1,1-1h14c0.55,0,1,0.45,1,1v12c0,0.55,0.45,1,1,1l0,0c0.55,0,1-0.45,1-1v-8
		c0-0.55,0-1.45,0-2V2c0-0.55-0.45-1-1-1H17z"/>
</g>
</svg>
