<?xml version="1.0" encoding="utf-8"?>
<!-- Generator: Adobe Illustrator 16.0.4, SVG Export Plug-In . SVG Version: 6.00 Build 0)  -->
<!DOCTYPE svg PUBLIC "-//W3C//DTD SVG 1.1//EN" "http://www.w3.org/Graphics/SVG/1.1/DTD/svg11.dtd" [
	<!ENTITY st0 "fill:none;stroke:#000000;stroke-miterlimit:10;">
]>
<svg version="1.1" id="Layer_1" xmlns="http://www.w3.org/2000/svg" xmlns:xlink="http://www.w3.org/1999/xlink" x="0px" y="0px"
	 width="167px" height="167px" viewBox="0 0 167 167" style="enable-background:new 0 0 167 167;" xml:space="preserve">
<path style="&st0;" d="M30.467,136.533c-29.242-29.242-29.242-76.824,0-106.066s76.824-29.242,106.066,0s29.242,76.824,0,106.066
	S59.709,165.775,30.467,136.533 M24.811,142.189c32.413,32.414,84.966,32.414,117.379,0c32.414-32.414,32.414-84.967,0-117.38
	c-32.413-32.413-84.966-32.413-117.379,0C-7.604,57.223-7.604,109.775,24.811,142.189L24.811,142.189z"/>
<g>
	<path d="M83,1.5c0.336,0,0.5,0.021,0.5,0.025v6C83.5,7.521,83.336,7.5,83,7.5c-41.906,0-75.75,34.094-75.75,76s34.219,76,76.125,76
		s76.062-34.094,76.062-76c0-13.961-3.77-27.044-10.365-38.299l5.234-3.014C161.4,54.322,165.492,68.43,165.492,83.5
		c0,45.287-36.709,82-81.996,82s-82.248-36.713-82.248-82S37.713,1.5,83,1.5z"/>
</g>
</svg>
